<svg width="182" height="32" viewBox="0 0 182 32" xmlns="http://www.w3.org/2000/svg"><path d="M8.28 23.54h11.47l-1.47-3.5H6.81l1.47 3.5zm36.77-1.4l-1.26-.1 1.2-.42c1.83-.65 2.82-1.53 2.82-4.35 0-4.95-4.55-5.34-5.94-5.34H23.62v19.89h18.57c4.79-.05 6.66-1.54 6.66-5.33 0-4.01-3.64-4.33-3.8-4.35zm-4.68 5.7H29.15V15.93h10.49c.29 0 2.83.06 2.83 2.14 0 1.16-.76 1.89-2.03 1.98H30.42l1.48 3.5h8.47c1.05 0 2.82.44 2.82 2.06 0 1.63-1.52 2.23-2.82 2.23zM0 15.67V28.2c0 1.1.44 3.64 4.47 3.64H21.4v-4H5.55v-11.9H21.4v-3.99H4.16c-1.93 0-4.16.42-4.16 3.73zm93.38-.77c-1.56-2.97-3.23-2.97-4.7-2.97H83.4l-8.02 14.23c-2.3-4.26-5.1-9.5-6-11.25-1.56-2.97-3.23-2.97-4.7-2.97h-5.3l-11.2 19.88h6.28l9.2-16.21 4.68 8.59h-8.28l1.68 3.8h8.65l1.8 3.82h6.28l9.2-16.21 4.68 8.59h-8.28l1.68 3.8h8.65l1.81 3.82h6.24c-1.25-2.3-7.62-14.12-9.07-16.92zM93.35 0c1.44 2.64 15.06 27.64 15.84 29.43.82 1.9 1.83 2.57 3.07 2.57h42.13c-8.46-1.04-14.48-6.84-19.23-10.84l-3.05-2.69c-6.5-5.69-15.09-15.92-16.21-16.86a8.1 8.1 0 00-2.88-1.59L93.35 0zm37.97 11.66h-.09c2.32 2.43 4.76 4.89 6.98 6.83l3.05 2.68c4.43 3.73 12.61 9.9 20.4 10.73.82.05 7.22.09 8.12.09H182s-1.92-.2-5.85-1.95h-.05a94.1 94.1 0 01-13.46-7.12l-.03-.03c-.81-.53-1.6-1.1-2.33-1.71l-.62-.55c-3.29-2.66-6.88-6-7.78-6.72-1.19-.92-2.59-2.24-6.4-2.24l-14.16-.01z" fill="#646771" fill-rule="nonzero"/></svg>