<svg width="74" height="50" viewBox="0 0 74 50" xmlns="http://www.w3.org/2000/svg"><g fill-rule="nonzero" fill="none"><path d="M63.8 38.46h.76l6.85 6.68v-6.68h2.2v10.72h-.83l-6.79-6.64v6.62h-2.2l.02-10.7zm-22.4 0v10.72h8.05V47.2h-5.87v-2.44H48v-2.02h-4.4v-2.3h5.86v-2.02l-8.04.04zm-13.16 0l4.4 10.72h2.2l4.4-10.72h-2.36l-3.16 7.84-3.12-7.84h-2.36zm-7.88 6.3v4.4h2.19v-4.4l4.05-6.31h-2.55l-2.6 4.41-2.54-4.41h-2.6l4.05 6.31zm-17.41 4.4h2.2l2.2-7.83 2.17 7.84h2.22l2.93-10.73H12.3l-1.9 7.24-1.88-7.24h-2.3l-1.96 7.27-1.9-7.27H0l2.95 10.72zm58.46 0h-2.55l-2.62-4.4h-1.99v4.41h-2.19V38.46h4.83c2.47 0 3.78 1.03 3.78 3.1 0 1.81-.97 2.71-2.01 2.94l2.75 4.66zm-4.12-6.42c1 0 1.37-.54 1.37-1.16 0-.62-.38-1.13-1.37-1.13h-3.04v2.29h3.04z" fill="#646771"/><path d="M37.7 20.97L64.32 0 50.46 28.36l-12.75-7.4zm-9.36-5.6l1.62.98L64.3 0 28.34 15.38zm-8.08-5.03L64.3 0 8.51 5.51l11.75 4.83z" fill="#E3E5EB"/><path d="M37.7 20.97l-6.6 11.25 9.75-9.44-3.14-1.81zm-7.74-4.62l-1.62-.97-8.08 10.17 9.94-5.78-.24-3.42z" fill="#646771"/><path d="M37.7 20.97l-6.6 11.25-1.14-15.87L64.3 0l-26.6 20.97zm-17.45 4.58l8.09-10.17L64.31 0 20.27 10.34l-.02 15.21z" fill="#A5A8B0"/></g></svg>