<svg width="57" height="56" viewBox="0 0 57 56" xmlns="http://www.w3.org/2000/svg"><path d="M28.522 0C14.681-.013 2.832 9.99.434 23.714c-2.399 13.724 5.346 27.198 18.36 31.944v-7.15c-9.056-4.493-13.9-14.626-11.74-24.554C9.216 14.025 17.824 6.86 27.916 6.588c10.092-.27 19.068 6.422 21.751 16.22 2.683 9.8-1.617 20.177-10.421 25.151v7.297c12.618-5.17 19.836-18.61 17.224-32.07C53.856 9.725 42.145.009 28.522 0zM25.52 17.226l-8.812-5.664-.09.697 7.11 5.378-3.541 2.46s-.762.968.656 1.091c1.711.096 3.428.005 5.12-.27 1.777-.267 2.482-.41 2.482-.41l12.984 5.208.924-.18-11.195-5.164.603-.41a.859.859 0 01.31-.574c.155-.092.324-.155.5-.189 0 0 .376.41 1.19.127.815-.283.815-.541.766-.984a.494.494 0 00-.362-.349c-.302-.073-.318-.332-.167-.377.15-.045.375-.213.33-.41-.045-.197-.196-.304 0-.562.195-.258.782-1.272.782-1.272l3.565 1.23.407-.196-3.7-1.788.693-.71-.586-.197-.782.513-3.068-1.575-.408.213 2.917 2.03-1.682 1.846-1.67.062s-.693-1.013-1.353-1.181c-.66-.169-1.414.106-1.532.455-.118.348-.15.574 0 .759.073.072.138.152.196.238-.339.064-.68.11-1.023.139-.403.016-1.564.016-1.564.016zm.407 2.695l-2.766-1.575 1.442-.878 2.09 1.177-.766 1.276zm7.13-1.665c.274 0 .497.224.497.5 0 .277-.223.5-.497.5a.499.499 0 01-.497-.5c0-.276.222-.5.497-.5zM28.07 16.45a.58.58 0 01.579-.582c.319 0 .578.26.578.582a.58.58 0 01-.578.583.58.58 0 01-.579-.583zM11.872 27.246h2.737v10.607h-2.737V27.246zm3.695 6.797v.693a5.51 5.51 0 00.24 1.841c.196.471.56.851 1.019 1.067a3.905 3.905 0 001.878.41 4.006 4.006 0 001.756-.365 2.07 2.07 0 001.018-.903c.207-.53.297-1.1.265-1.669 0-1.039-.159-1.792-.477-2.26-.317-.467-1.086-1.065-2.305-1.792a2.069 2.069 0 01-.775-.648 1.758 1.758 0 01-.142-.8c-.014-.213.03-.425.126-.615a.407.407 0 01.375-.205.358.358 0 01.326.151c.086.224.12.464.098.702v.82h2.546v-.41a4.66 4.66 0 00-.245-1.792 1.907 1.907 0 00-.994-.874 4.317 4.317 0 00-1.817-.349 3.961 3.961 0 00-1.666.316c-.42.176-.77.486-.998.882a3.874 3.874 0 00-.31 1.772c-.014.473.06.945.22 1.39.119.322.307.614.55.853.43.36.88.69 1.353.989.458.278.888.6 1.283.964a2 2 0 01.253 1.23c.015.226-.031.452-.135.652a.447.447 0 01-.407.218.406.406 0 01-.379-.173 1.709 1.709 0 01-.106-.767v-1.3l-2.55-.028zm6.722-1.46h3.455v1.829h-3.455v-1.83zm10.417-2.33a3.712 3.712 0 00-.407-1.994 1.945 1.945 0 00-1.076-.82 7.152 7.152 0 00-1.963-.2h-2.734v10.606h3.17a7.925 7.925 0 002.187-.189c.346-.117.628-.374.778-.71.191-.507.274-1.05.245-1.591v-.984a2.784 2.784 0 00-.338-1.538 2.033 2.033 0 00-1.288-.718c.43-.06.83-.257 1.141-.562.228-.39.328-.842.285-1.292v-.008zm-2.554 4.79c.04.284-.017.573-.16.82a1.163 1.163 0 01-.736.185v-2.97c.262-.024.525.034.753.165.13.252.18.538.143.82v.98zm-.11-3.835c-.073.132-.245.201-.513.201h-.273v-2.358a2.1 2.1 0 01.57.057c.11.049.196.14.236.255.074.224.105.46.09.697.031.388-.006.778-.11 1.153v-.005zm3.21 6.637h2.852l.163-1.908h.978l.146 1.908h2.8L38.63 27.238h-3.96l-1.418 10.607zm3.488-8.24c.138 1.769.274 3.254.407 4.454h-.884c.06-.935.23-2.419.51-4.45l-.033-.004zm4.412-1.444a2.545 2.545 0 00-.469 1.23c-.049.443-.073 1.198-.073 2.264v1.813c-.013.765.012 1.53.077 2.293.115.92.717 1.706 1.573 2.05.483.193 1 .288 1.52.28a3.852 3.852 0 001.56-.296 2.533 2.533 0 001.532-2.05c.048-.443.073-1.198.073-2.264v-1.813a22.64 22.64 0 00-.078-2.293 2.549 2.549 0 00-1.572-2.05c-.484-.193-1-.288-1.52-.28a3.848 3.848 0 00-1.56.296 2.524 2.524 0 00-1.063.82zm2.196 1.809a2.386 2.386 0 01.114-.985.374.374 0 01.33-.168c.144-.014.28.07.334.205.072.31.1.63.081.948v4.872c.019.397-.007.795-.077 1.186a.338.338 0 01-.359.25.326.326 0 01-.346-.217 4.888 4.888 0 01-.073-1.14l-.004-4.951zM19.743 47.988h.815v1.854h-.815v-1.854zm1.116 0h.815v1.854h-.815v-1.854zm-1.116 2.305h.815v5.59h-.815v-5.59zm1.116 0h.815v5.59h-.815v-5.59zm14.125 1.915a.913.913 0 01.643.246h.986a1.67 1.67 0 00-1.63-1.111 1.623 1.623 0 00-1.184.421 1.645 1.645 0 00-.535 1.146v.094c-.008.458.164.9.48 1.23.315.33.748.52 1.203.53h.04a1.574 1.574 0 001.708-1.256h-.917c-.192.265-.49.432-.815.456a.912.912 0 01-.884-.936.823.823 0 01.221-.587.812.812 0 01.57-.257l.114.024zm-11.68-4.22v4.778a3.188 3.188 0 000 .324c.093.988.757 1.796 1.743 1.796a1.784 1.784 0 001.633-1.049 1.806 1.806 0 00-.28-1.93 1.777 1.777 0 00-1.862-.536v1.063a.81.81 0 01.998-.009.824.824 0 01.257.971.814.814 0 01-1.56-.232v-5.176h-.93zm6.746 3.31c-.638 0-1.227.342-1.545.898a1.807 1.807 0 000 1.796c.318.556.907.899 1.545.899.186-.01.37-.044.546-.103v-.993c-.17.085-.357.13-.546.132a.832.832 0 01-.83-.835c0-.46.372-.835.83-.835.66 0 .896.337.933.76v2.87h.815v-2.46a1.801 1.801 0 00-.384-1.472 1.776 1.776 0 00-1.368-.645l.004-.012zm4.99 3.982a2.206 2.206 0 01-2.193-2.005 2.213 2.213 0 011.78-2.385 2.2 2.2 0 012.524 1.56h.815a3.04 3.04 0 00-2.925-2.33 2.73 2.73 0 00-2.445 1.325 2.846 2.846 0 00-2.444-1.263c-1.414 0-2.155.541-2.522 1.333-.407-.82-1.222-1.333-2.583-1.333-.162 0-.324.01-.485.033v.68c.16-.03.322-.044.485-.044 1.267 0 2.27.898 2.27 2.05a2.33 2.33 0 01-2.27 2.346 2.225 2.225 0 01-2.143-2.3v-4.96h-.815v4.923a2.95 2.95 0 002.811 3.076h.127c1.316 0 2.106-.566 2.513-1.387.371.866 1.186 1.39 2.596 1.39.153-.004.305-.02.456-.048v-.755c-.15.034-.303.053-.456.057-1.284 0-2.241-.82-2.241-2.124a2.175 2.175 0 01.548-1.566 2.145 2.145 0 011.489-.715h.22a2.136 2.136 0 012.037 1.846c.058.36.077.726.057 1.09v2.084h.95v-.488c.517.43 1.174.654 1.845.628a2.943 2.943 0 002.925-2.461h-.815a2.269 2.269 0 01-2.11 1.743zm-8.632-9.843l-2.986-1.834s-.057-1.911-.057-2.174a.255.255 0 00-.116-.246.251.251 0 00-.27 0 .255.255 0 00-.116.246c0 .263-.057 2.174-.057 2.174l-2.986 1.825v.374l2.905-.722.057 1.546.094.176v.169l-.71.442v.197h1.875v-.197l-.689-.459v-.168l.094-.176.057-1.547 2.905.722v-.348z" fill="#646771" fill-rule="nonzero"/></svg>
