<svg width="112" height="39" viewBox="0 0 112 39" xmlns="http://www.w3.org/2000/svg"><path d="M0 0v39h57.57C61.64 26 65.85 13.03 69.96.03 46.63 0 23.3.03 0 0zm21.94 28.02l.4-.71c-.8-2.06-1.77-4.07-2.57-6.14-2.19-.03-4.37 0-6.55 0l-2.49 5.85c-.17.35.1.68.2 1-.68-.02-1.36 0-2.03 0 .4-.32.71-.73.92-1.2 2.04-4.75 4.11-9.5 6.15-14.24.32-.59-.17-1.14-.46-1.61l.61-.87c2.45 5.98 4.95 11.94 7.38 17.93h-1.56v-.01zm2.24 0c-2.55-6.04-5.02-12.08-7.57-18.12-.27-.47.23-.89.41-1.3 2.52 6.05 5 12.09 7.52 18.1.26.52.64.98 1.1 1.33-.49 0-.97-.04-1.45 0l-.01-.01zm4.52 0c-.48 0-.96.03-1.43 0 .6-.38.58-1.2.65-1.8V11.67c0-.76-.07-1.54-.63-2.11h1.4v18.45zm11.16 0c-1.77-.9-3.39-2.08-4.79-3.48a31.34 31.34 0 01-3.42-4.56h-1.46v6.75c0 .49.3.89.48 1.32H29.4V9.6c1.41.03 2.85-.32 4.24 0a5.87 5.87 0 013.37 2.59c.86 1.5.86 3.33 0 4.83a6.09 6.09 0 01-2.94 2.56c1.3 1.96 2.75 3.8 4.35 5.53a10.72 10.72 0 004.34 3.13c-.95.08-2.03.3-2.91-.24v.03zm17.91-.44c-2.8.78-5.87 1.14-8.68.19a9.36 9.36 0 01-4.99-13.94c1.65-2.4 4.23-4 7.13-4.43 2.09-.31 4.22-.16 6.25.44a4.4 4.4 0 001.74.2c.16.66.26 1.33.32 2-1.8-1.7-4.48-2.23-6.88-1.93a9.12 9.12 0 00-6.33 3.74 8.82 8.82 0 003 12.5 9.36 9.36 0 007.66.6c.04-2.03 0-4.07 0-6.1a2.46 2.46 0 00-.58-1.8l1.4-.03c-.02 2.84-.02 5.69-.02 8.54l-.02.02zm1.46-.29l-.78.12c.03-2.77 0-5.56 0-8.34h1.4c-.28.4-.63.8-.63 1.3 0 2.27.04 4.58 0 6.89l.01.03zM35.35 15.3c.31-1.9-.78-4-2.62-4.69-.82-.35-1.7-.26-2.55-.29v8.86c.73.04 1.47-.04 2.17-.25a4.6 4.6 0 003-3.63zm9.02.98c.4-1.7 1.55-3.1 2.66-4.4a8.52 8.52 0 00.3 14.13c-1.76-1.66-3.08-3.9-3.2-6.34-.02-1.15-.1-2.3.24-3.39zm-11.1 3.56l-.78.03c.85 1.09 1.63 2.22 2.52 3.28 1.18 1.52 2.77 2.66 4.28 3.84a36.62 36.62 0 01-6.03-7.15zm1.19-1.24c1.4-.85 2.47-2.38 2.4-4.03.05-1.64-1.09-3.09-2.52-3.8.95.79 1.59 1.88 1.8 3.09a5.45 5.45 0 01-1.68 4.74zm-15.07 1.79c-.89-2.42-1.93-4.8-2.82-7.23-1.02 2.42-2.03 4.84-3.05 7.23h5.89-.02zM73.62 0c-.26 1-.62 1.96-.9 2.95C68.87 14.97 65.13 26.98 61.25 39H112V0a13064 13064 0 01-38.38 0zm13.72 28h-.77V25.6a11 11 0 01-3.22 2.14 8.49 8.49 0 01-6.64-.26 7.08 7.08 0 01-3.58-4.94c-.23-1.11-.14-2.25-.15-3.37 0-2.66.02-5.32 0-7.97a1.86 1.86 0 00-.67-1.64h1.5v11.3c.04 1.7.4 3.52 1.62 4.8a7.3 7.3 0 004.6 2.06 7.4 7.4 0 01-3.84-2.09 7.16 7.16 0 01-1.72-4.53V9.56h1.39c-.37.37-.58.87-.58 1.38V21.1c.06 1.42.4 2.94 1.42 4.02a6.3 6.3 0 005.7 1.95 9.03 9.03 0 004.16-2.42c.03-4.48 0-8.96 0-13.44.02-.6-.2-1.18-.62-1.61h1.4c0 6.1.03 12.26 0 18.4zm1.48-1.58a3 3 0 00.5 1.57h-1.27c-.04-6.15 0-12.3 0-18.45h1.34a2.47 2.47 0 00-.55 1.61v15.27h-.02zm11.61.84c-1.46 1-3.3 1.3-5.01.8-1.1-.2-2.07-1.02-3.23-.8V24.9c1.06 1.7 3.09 2.91 5.16 2.56 1.34-.19 2.23-1.44 2.44-2.68a3.68 3.68 0 00-1.04-3.1c-1.46-1.47-2.94-2.9-4.4-4.35a6 6 0 01-1.8-3 4.3 4.3 0 01.49-2.79c1-1.5 2.74-2.37 4.56-2.27 1.12 0 2.2.55 3.32.23 0 .67 0 1.34-.07 2.01-.44-.43-.82-.94-1.44-1.15-1-.35-2.17-.5-3.14 0-.8.48-1.35 1.3-1.49 2.21-.12 1.11.3 2.2 1.14 2.96 1.56 1.5 3.05 3.1 4.57 4.66a5 5 0 011.57 3.58 4.12 4.12 0 01-1.63 3.5zM71.06 0c-4.1 13-8.3 25.98-12.4 38.98h1.5L72.54 0h-1.47zm24.83 16.76a6.6 6.6 0 01-1.51-1.86 4.2 4.2 0 01.1-3.79 3.08 3.08 0 00-.75 3.93c.52.98 1.37 1.71 2.12 2.5s1.63 1.61 2.44 2.47c.81.85 1.75 1.6 2.13 2.72.45 1.25.14 2.6-.33 3.78.81-.85 1.41-2.01 1.22-3.22a4.49 4.49 0 00-1.05-2.07c-1.43-1.54-2.93-2.95-4.37-4.45v-.01z" fill="#646771" fill-rule="nonzero"/></svg>