<svg width="156" height="28" viewBox="0 0 156 28" xmlns="http://www.w3.org/2000/svg"><path d="M3.917 5.7c5.455-5 15.95-7.606 25.253-4.068-7.848-.621-21.7 2.9-25.253 4.068zM2.334 7.382C6.972 6.048 26.761.646 33.505 3.873a17.928 17.928 0 013.431 3.045C27.121 2.697 2.473 9.59.65 10.46c.491-1.085 1.105-2.605 1.685-3.074v-.004zM.191 12.134c6.65-2.357 30.19-8.26 38.221-3.02.443 1.06.812 2.149 1.105 3.26-7.19-7.134-35.616.63-39.497 2.54-.053-.935 0-1.873.155-2.796l.016.016zM.048 15.35c4.47 1.073 34.565 2.56 39.62-.916a15.211 15.211 0 01-.613 3.104c-4.871 3.417-35.461 1.553-38.16.745a17.927 17.927 0 01-.818-2.9l-.029-.033zm1.665 4.437c3.954.593 33.317 2.072 36.659-.712a14.385 14.385 0 01-3.158 3.848c-4.723 1.305-29.792.622-31.109-.31-.458-.415-1.84-1.832-2.388-2.826h-.004zm4.44 4.458c5.395.866 22.314 1.18 26.82.31-6.085 4.317-19.327 4.972-26.82-.31zM49.877 5.232h3.55l15.707 13.535V5.232h3.219v17.4h-3.076L53.094 8.654V22.65h-3.218V5.232zm28.344 0h14.567c4.045 0 6.74 1.152 6.74 4.458 0 2.204-1.063 3.016-1.987 3.617a4.658 4.658 0 012.65 4.283c0 3.286-2.577 5.055-6.765 5.055H78.22V5.232zM93 12.11c2.2 0 3.17-.55 3.17-2.013 0-1.463-.97-2.038-3.17-2.038H81.578v4.047L93 12.11zm.094 7.714c2.127 0 3.738-.414 3.738-2.485 0-1.823-1.468-2.395-3.738-2.395H81.578v4.889l11.516-.009zm34.647-10.436c0-3.28-2.777-4.428-6.81-4.428h-8.918c-4.033 0-6.76 1.147-6.777 4.428v13.158h3.133v-6.699h16.256v6.703h3.132V9.387h-.016zm-19.385 3.63V9.702c.066-1.396 1.301-1.922 3.44-1.922h9.45c2.201 0 3.35.551 3.35 2.034v3.194l-16.24.009zm47.624-3.63c0-3.28-2.777-4.428-6.81-4.428h-8.919c-4.032 0-6.76 1.147-6.776 4.428v13.158h3.136v-6.699h16.256v6.703H156V9.387h-.02zm-19.369 3.63V9.702c.066-1.396 1.3-1.922 3.44-1.922h9.467c2.2 0 3.345.551 3.345 2.034v3.194l-16.252.009z" fill="#646771" fill-rule="nonzero"/></svg>
