<svg xmlns="http://www.w3.org/2000/svg" class="_Dl" viewBox="0 0 125 57"><path fill="#D8353B" d="m40.98 22.85.06-.04L73.2.74h-8.56L37.61 19.3l-.11.08-.03-.03L26.94 8.9C20.11 2.24 14.7.57 7.41.73l23.4 23.25L0 45.12l8.5.02 25.78-17.7.04.05 20.1 20.01c6.28 6.01 13.04 9.14 20.34 8.99L40.98 22.85Z"/><path fill="currentColor" d="M113.77 25.1C109.9 38.35 99.43 42.02 87.2 41.62c-14.62-.49-18.73-7.64-14.74-20.5C76.52 8.06 87.24 4.23 98.92 4.11c9.38-.1 14.18 3.84 15.9 7.7 1.36 3.15.33 8.54-1.05 13.29ZM100.72 0c-17.1-.18-32.1 4.38-37.54 20.49-5.05 14.94.57 24.63 21.25 25.22 17.3.5 32.5-3 38.4-19.95 2.02-5.8 2.75-12.56.84-16.4-2.44-4.72-8.29-9.2-22.95-9.35Z"/></svg>